<?xml version="1.0" standalone="no"?><!DOCTYPE svg PUBLIC "-//W3C//DTD SVG 1.1//EN" "http://www.w3.org/Graphics/SVG/1.1/DTD/svg11.dtd"><svg width="100%" height="100%" viewBox="0 0 512 512" version="1.1" xmlns="http://www.w3.org/2000/svg" xmlns:xlink="http://www.w3.org/1999/xlink" xml:space="preserve" style="fill-rule:evenodd;clip-rule:evenodd;stroke-linejoin:round;stroke-miterlimit:1.41421;"><path d="M480,0c9.167,0 16.792,3.042 22.875,9.125c6.083,6.083 9.125,13.708 9.125,22.875c0,9 -3.083,16.583 -9.25,22.75l-201.5,201.25l201.5,201.25c6.167,6.167 9.25,13.75 9.25,22.75c0,9.167 -3.042,16.792 -9.125,22.875c-6.083,6.083 -13.708,9.125 -22.875,9.125c-9,0 -16.583,-3.083 -22.75,-9.25l-201.25,-201.5l-201.25,201.5c-6.167,6.167 -13.75,9.25 -22.75,9.25c-9.167,0 -16.792,-3.042 -22.875,-9.125c-6.083,-6.083 -9.125,-13.708 -9.125,-22.875c0,-9 3.083,-16.583 9.25,-22.75l201.5,-201.25l-201.5,-201.25c-6.167,-6.167 -9.25,-13.75 -9.25,-22.75c0,-9.167 3.042,-16.792 9.125,-22.875c6.083,-6.083 13.708,-9.125 22.875,-9.125c9,0 16.583,3.083 22.75,9.25l201.25,201.5l201.25,-201.5c6.167,-6.167 13.75,-9.25 22.75,-9.25Z" style="fill:#fff;fill-rule:nonzero;"/></svg>