<?xml version="1.0" standalone="no"?><!DOCTYPE svg PUBLIC "-//W3C//DTD SVG 1.1//EN" "http://www.w3.org/Graphics/SVG/1.1/DTD/svg11.dtd"><svg width="100%" height="100%" viewBox="0 0 704 704" version="1.1" xmlns="http://www.w3.org/2000/svg" xmlns:xlink="http://www.w3.org/1999/xlink" xml:space="preserve" style="fill-rule:evenodd;clip-rule:evenodd;stroke-linejoin:round;stroke-miterlimit:1.41421;"><path d="M288,0c39,0 76.292,7.625 111.875,22.875c35.583,15.25 66.208,35.708 91.875,61.375c25.667,25.667 46.125,56.292 61.375,91.875c15.25,35.583 22.875,72.875 22.875,111.875c0,33.5 -5.458,65.583 -16.375,96.25c-10.917,30.667 -26.458,58.5 -46.625,83.5l181.75,181.5c6.167,6.167 9.25,13.75 9.25,22.75c0,9.167 -3.042,16.792 -9.125,22.875c-6.083,6.083 -13.708,9.125 -22.875,9.125c-9,0 -16.583,-3.083 -22.75,-9.25l-181.5,-181.75c-25,20.167 -52.833,35.708 -83.5,46.625c-30.667,10.917 -62.75,16.375 -96.25,16.375c-39,0 -76.292,-7.625 -111.875,-22.875c-35.583,-15.25 -66.208,-35.708 -91.875,-61.375c-25.667,-25.667 -46.125,-56.292 -61.375,-91.875c-15.25,-35.583 -22.875,-72.875 -22.875,-111.875c0,-39 7.625,-76.292 22.875,-111.875c15.25,-35.583 35.708,-66.208 61.375,-91.875c25.667,-25.667 56.292,-46.125 91.875,-61.375c35.583,-15.25 72.875,-22.875 111.875,-22.875ZM288,64c-30.333,0 -59.333,5.917 -87,17.75c-27.667,11.833 -51.5,27.75 -71.5,47.75c-20,20 -35.917,43.833 -47.75,71.5c-11.833,27.667 -17.75,56.667 -17.75,87c0,30.333 5.917,59.333 17.75,87c11.833,27.667 27.75,51.5 47.75,71.5c20,20 43.833,35.917 71.5,47.75c27.667,11.833 56.667,17.75 87,17.75c30.333,0 59.333,-5.917 87,-17.75c27.667,-11.833 51.5,-27.75 71.5,-47.75c20,-20 35.917,-43.833 47.75,-71.5c11.833,-27.667 17.75,-56.667 17.75,-87c0,-30.333 -5.917,-59.333 -17.75,-87c-11.833,-27.667 -27.75,-51.5 -47.75,-71.5c-20,-20 -43.833,-35.917 -71.5,-47.75c-27.667,-11.833 -56.667,-17.75 -87,-17.75ZM288,160c8.833,0 16.375,3.125 22.625,9.375c6.25,6.25 9.375,13.792 9.375,22.625l0,64l64,0c8.833,0 16.375,3.125 22.625,9.375c6.25,6.25 9.375,13.792 9.375,22.625c0,8.833 -3.125,16.375 -9.375,22.625c-6.25,6.25 -13.792,9.375 -22.625,9.375l-64,0l0,64c0,8.833 -3.125,16.375 -9.375,22.625c-6.25,6.25 -13.792,9.375 -22.625,9.375c-8.833,0 -16.375,-3.125 -22.625,-9.375c-6.25,-6.25 -9.375,-13.792 -9.375,-22.625l0,-64l-64,0c-8.833,0 -16.375,-3.125 -22.625,-9.375c-6.25,-6.25 -9.375,-13.792 -9.375,-22.625c0,-8.833 3.125,-16.375 9.375,-22.625c6.25,-6.25 13.792,-9.375 22.625,-9.375l64,0l0,-64c0,-8.833 3.125,-16.375 9.375,-22.625c6.25,-6.25 13.792,-9.375 22.625,-9.375Z" style="fill:#fff;fill-rule:nonzero;"/></svg>